<?xml version="1.0" encoding="UTF-8"?>
<svg width="30px" height="18px" viewBox="0 0 30 18" version="1.1" xmlns="http://www.w3.org/2000/svg" xmlns:xlink="http://www.w3.org/1999/xlink">
    <!-- Generator: Sketch 50.2 (55047) - http://www.bohemiancoding.com/sketch -->
    <title>Combined Shape Copy</title>
    <desc>Created with Sketch.</desc>
    <defs></defs>
    <g id="Page-1" stroke="none" stroke-width="1" fill="none" fill-rule="evenodd">
        <g id="checkout" transform="translate(-801.000000, -472.000000)" fill="#FFFFFF" fill-rule="nonzero">
            <g id="Group-Copy-3" transform="translate(690.000000, 456.000000)">
                <path d="M117.432195,19.6760737 L116.900367,20.1970388 C116.684241,20.4175077 116.687761,20.7586888 116.900367,20.9669516 L118.736019,22.7651079 C118.801896,22.8296383 118.907282,22.8296383 118.973158,22.7651079 L119.785299,21.9695564 C123.218053,18.6069217 128.781973,18.6069217 132.214727,21.9695564 L132.970383,22.709777 C133.036259,22.7743074 133.141646,22.7743074 133.207522,22.709777 L135.043175,20.9116206 C135.259301,20.6911517 135.25578,20.3499705 135.043175,20.1417078 L134.567831,19.6760737 C129.836418,15.0413088 122.163608,15.0413088 117.432195,19.6760737 Z M137.989985,23.7671271 L132.45276,29.1912448 C132.303186,29.3377639 132.063902,29.3377639 131.914327,29.1912448 L126.377013,23.7670397 C126.1675,23.5618062 125.832327,23.5618101 125.622818,23.7670484 L120.085777,29.1912356 C119.936204,29.3377606 119.696915,29.3377634 119.547338,29.1912419 L114.010015,23.767028 C113.800505,23.5617979 113.465338,23.5617979 113.255829,23.767028 L111.678791,25.3118522 C111.462665,25.5323211 111.466185,25.8735023 111.678791,26.081765 L119.439521,33.6839692 C119.649033,33.8892008 119.984202,33.8891991 120.193711,33.6839654 L125.730833,28.2598403 C125.880407,28.1133186 126.119693,28.1133174 126.269268,28.2598375 L131.806509,33.6839707 C132.01602,33.8892018 132.351189,33.8892007 132.560698,33.683968 L140.321216,26.0818651 C140.537339,25.8613989 140.533819,25.5202177 140.321213,25.311955 L138.744171,23.7671271 C138.534662,23.561897 138.199495,23.561897 137.989985,23.7671271 Z" id="Combined-Shape-Copy"></path>
            </g>
        </g>
    </g>
</svg>